<?xml version="1.0" encoding="UTF-8"?> <svg xmlns="http://www.w3.org/2000/svg" width="32" height="32" viewBox="0 0 32 32" fill="none"><g clip-path="url(#clip0_18303_25148)"><path d="M30 5.5C30 7.433 28.433 9 26.5 9C24.567 9 23 7.433 23 5.5C23 3.567 24.567 2 26.5 2C28.433 2 30 3.567 30 5.5Z" fill="#49FF86"></path><path d="M30 26.5C30 28.433 28.433 30 26.5 30C24.567 30 23 28.433 23 26.5C23 24.567 24.567 23 26.5 23C28.433 23 30 24.567 30 26.5Z" fill="#49FF86"></path><path d="M26.5 19.5C28.433 19.5 30 17.933 30 16C30 14.067 28.433 12.5 26.5 12.5C24.567 12.5 23 14.067 23 16C23 17.933 24.567 19.5 26.5 19.5Z" fill="#49FF86"></path><path d="M19.5 26.5C19.5 28.433 17.933 30 16 30C14.067 30 12.5 28.433 12.5 26.5C12.5 24.567 14.067 23 16 23C17.933 23 19.5 24.567 19.5 26.5Z" fill="#49FF86"></path><path d="M16 9C17.933 9 19.5 7.433 19.5 5.5C19.5 3.567 17.933 2 16 2C14.067 2 12.5 3.567 12.5 5.5C12.5 7.433 14.067 9 16 9Z" fill="#49FF86"></path><path d="M9 26.5C9 28.433 7.433 30 5.5 30C3.567 30 2 28.433 2 26.5C2 24.567 3.567 23 5.5 23C7.433 23 9 24.567 9 26.5Z" fill="#49FF86"></path><path d="M16 19.5C17.933 19.5 19.5 17.933 19.5 16C19.5 14.067 17.933 12.5 16 12.5C14.067 12.5 12.5 14.067 12.5 16C12.5 17.933 14.067 19.5 16 19.5Z" fill="#49FF86"></path><path d="M9 5.5C9 7.433 7.433 9 5.5 9C3.567 9 2 7.433 2 5.5C2 3.567 3.567 2 5.5 2C7.433 2 9 3.567 9 5.5Z" fill="#49FF86"></path><path d="M5.5 19.5C7.433 19.5 9 17.933 9 16C9 14.067 7.433 12.5 5.5 12.5C3.567 12.5 2 14.067 2 16C2 17.933 3.567 19.5 5.5 19.5Z" fill="#49FF86"></path></g><defs><clipPath id="clip0_18303_25148"><rect width="28" height="28" fill="white" transform="translate(2 2)"></rect></clipPath></defs></svg> 