<?xml version="1.0" encoding="UTF-8"?> <svg xmlns="http://www.w3.org/2000/svg" width="320" height="200" viewBox="0 0 320 200" fill="none"><rect width="320" height="200" rx="8" fill="#222D26"></rect><rect width="66.6667" height="66.6667" transform="matrix(0.866025 0.5 -0.866025 0.5 159.736 93.3335)" fill="url(#paint0_linear_18303_25269)"></rect><rect width="66.6667" height="66.6667" transform="matrix(0.866025 0.5 -0.866025 0.5 159.736 80)" fill="url(#paint1_linear_18303_25269)"></rect><rect width="66.6667" height="66.6667" transform="matrix(0.866025 0.5 -0.866025 0.5 159.736 66.6665)" fill="url(#paint2_linear_18303_25269)"></rect><rect width="66.6667" height="66.6667" transform="matrix(0.866025 0.5 -0.866025 0.5 159.736 53.3335)" fill="url(#paint3_linear_18303_25269)"></rect><rect width="66.6667" height="66.6667" transform="matrix(0.866025 0.5 -0.866025 0.5 159.736 40)" fill="url(#paint4_linear_18303_25269)"></rect><defs><linearGradient id="paint0_linear_18303_25269" x1="74.5121" y1="73.8212" x2="14.5121" y2="73.8212" gradientUnits="userSpaceOnUse"><stop stop-color="#F7F7F7" stop-opacity="0.85"></stop><stop offset="1" stop-color="#222D26" stop-opacity="0.83"></stop></linearGradient><linearGradient id="paint1_linear_18303_25269" x1="73.6788" y1="72.9879" x2="4.28423" y2="75.7595" gradientUnits="userSpaceOnUse"><stop stop-color="white"></stop><stop offset="1" stop-color="#222D26"></stop></linearGradient><linearGradient id="paint2_linear_18303_25269" x1="72.0121" y1="71.3212" x2="4.28401" y2="74.0901" gradientUnits="userSpaceOnUse"><stop stop-color="white"></stop><stop offset="1" stop-color="#222D26"></stop></linearGradient><linearGradient id="paint3_linear_18303_25269" x1="73.5499" y1="74.7835" x2="2.36416" y2="75.7329" gradientUnits="userSpaceOnUse"><stop stop-color="white"></stop><stop offset="1" stop-color="#222D26"></stop></linearGradient><linearGradient id="paint4_linear_18303_25269" x1="67.0121" y1="66.3212" x2="-0.00694516" y2="67.2698" gradientUnits="userSpaceOnUse"><stop stop-color="white"></stop><stop offset="1" stop-color="#222D26"></stop></linearGradient></defs></svg> 