<?xml version="1.0" encoding="UTF-8"?> <svg xmlns="http://www.w3.org/2000/svg" width="320" height="200" viewBox="0 0 320 200" fill="none"><rect width="320" height="200" rx="8" fill="#222D26"></rect><path d="M128.8 50C128.8 51.891 128.428 53.7636 127.704 55.5106C126.98 57.2577 125.92 58.8452 124.582 60.1823C123.245 61.5195 121.658 62.5802 119.911 63.3039C118.164 64.0275 116.291 64.4 114.4 64.4C112.509 64.4 110.636 64.0275 108.889 63.3039C107.142 62.5802 105.555 61.5195 104.218 60.1823C102.88 58.8452 101.82 57.2577 101.096 55.5106C100.372 53.7636 100 51.891 100 50L128.8 50Z" fill="url(#paint0_linear_18303_25281)"></path><path d="M128.8 78.8003C128.8 76.9093 128.428 75.0367 127.704 73.2896C126.98 71.5426 125.92 69.9551 124.582 68.618C123.245 67.2808 121.658 66.2201 119.911 65.4964C118.164 64.7728 116.291 64.4003 114.4 64.4003C112.509 64.4003 110.636 64.7728 108.889 65.4964C107.142 66.2201 105.555 67.2808 104.218 68.618C102.88 69.9551 101.82 71.5426 101.096 73.2897C100.372 75.0367 100 76.9093 100 78.8003L128.8 78.8003Z" fill="url(#paint1_linear_18303_25281)"></path><path d="M130.4 49.9998C132.291 49.9998 134.164 50.3723 135.911 51.0959C137.658 51.8196 139.246 52.8803 140.583 54.2175C141.92 55.5546 142.981 57.1421 143.704 58.8892C144.428 60.6363 144.8 62.5088 144.8 64.3998C144.8 66.2908 144.428 68.1634 143.704 69.9104C142.981 71.6575 141.92 73.245 140.583 74.5821C139.246 75.9193 137.658 76.98 135.911 77.7037C134.164 78.4273 132.291 78.7998 130.4 78.7998L130.4 49.9998Z" fill="url(#paint2_linear_18303_25281)"></path><path d="M159.2 50.0003C157.309 50.0003 155.436 50.3728 153.689 51.0964C151.942 51.8201 150.355 52.8808 149.018 54.218C147.681 55.5551 146.62 57.1426 145.896 58.8897C145.172 60.6367 144.8 62.5093 144.8 64.4003C144.8 66.2913 145.172 68.1638 145.896 69.9109C146.62 71.658 147.681 73.2455 149.018 74.5826C150.355 75.9198 151.942 76.9805 153.689 77.7042C155.436 78.4278 157.309 78.8003 159.2 78.8003L159.2 50.0003Z" fill="url(#paint3_linear_18303_25281)"></path><path d="M175.2 50.0003C177.091 50.0003 178.964 50.3728 180.711 51.0964C182.458 51.8201 184.045 52.8808 185.382 54.218C186.72 55.5551 187.78 57.1426 188.504 58.8897C189.228 60.6367 189.6 62.5093 189.6 64.4003C189.6 66.2913 189.228 68.1638 188.504 69.9109C187.78 71.658 186.72 73.2455 185.382 74.5826C184.045 75.9198 182.458 76.9805 180.711 77.7042C178.964 78.4278 177.091 78.8003 175.2 78.8003L175.2 50.0003Z" fill="url(#paint4_linear_18303_25281)"></path><path d="M160.8 50.0003C162.691 50.0003 164.564 50.3728 166.311 51.0964C168.058 51.8201 169.645 52.8808 170.982 54.218C172.319 55.5551 173.38 57.1426 174.104 58.8897C174.828 60.6367 175.2 62.5093 175.2 64.4003C175.2 66.2913 174.828 68.1638 174.104 69.9109C173.38 71.658 172.319 73.2455 170.982 74.5826C169.645 75.9198 168.058 76.9805 166.311 77.7042C164.564 78.4278 162.691 78.8003 160.8 78.8003L160.8 50.0003Z" fill="url(#paint5_linear_18303_25281)"></path><path d="M220 50C220 51.891 219.628 53.7636 218.904 55.5106C218.18 57.2577 217.12 58.8452 215.782 60.1823C214.445 61.5195 212.858 62.5802 211.111 63.3039C209.364 64.0275 207.491 64.4 205.6 64.4C203.709 64.4 201.836 64.0275 200.089 63.3039C198.342 62.5802 196.755 61.5195 195.418 60.1823C194.081 58.8452 193.02 57.2577 192.296 55.5106C191.572 53.7636 191.2 51.891 191.2 50L220 50Z" fill="url(#paint6_linear_18303_25281)"></path><path d="M220 78.8003C220 76.9093 219.628 75.0367 218.904 73.2896C218.18 71.5426 217.12 69.9551 215.782 68.618C214.445 67.2808 212.858 66.2201 211.111 65.4964C209.364 64.7728 207.491 64.4003 205.6 64.4003C203.709 64.4003 201.836 64.7728 200.089 65.4964C198.342 66.2201 196.755 67.2808 195.418 68.618C194.081 69.9551 193.02 71.5426 192.296 73.2897C191.572 75.0367 191.2 76.9093 191.2 78.8003L220 78.8003Z" fill="url(#paint7_linear_18303_25281)"></path><path d="M100 85.2C101.891 85.2 103.764 85.5725 105.511 86.2961C107.258 87.0198 108.845 88.0805 110.182 89.4177C111.52 90.7548 112.58 92.3423 113.304 94.0894C114.028 95.8364 114.4 97.709 114.4 99.6C114.4 101.491 114.028 103.364 113.304 105.111C112.58 106.858 111.52 108.445 110.182 109.782C108.845 111.12 107.258 112.18 105.511 112.904C103.764 113.628 101.891 114 100 114L100 85.2Z" fill="url(#paint8_linear_18303_25281)"></path><path d="M128.8 85.2C126.909 85.2 125.036 85.5725 123.289 86.2961C121.542 87.0198 119.955 88.0805 118.618 89.4177C117.28 90.7548 116.22 92.3423 115.496 94.0894C114.772 95.8364 114.4 97.709 114.4 99.6C114.4 101.491 114.772 103.364 115.496 105.111C116.22 106.858 117.28 108.445 118.618 109.782C119.955 111.12 121.542 112.18 123.289 112.904C125.036 113.628 126.909 114 128.8 114L128.8 85.2Z" fill="url(#paint9_linear_18303_25281)"></path><path d="M159.2 85.2002C159.2 87.0912 158.828 88.9637 158.104 90.7108C157.381 92.4579 156.32 94.0454 154.983 95.3825C153.646 96.7197 152.058 97.7804 150.311 98.5041C148.564 99.2277 146.691 99.6002 144.8 99.6002C142.909 99.6002 141.037 99.2277 139.29 98.5041C137.543 97.7804 135.955 96.7197 134.618 95.3825C133.281 94.0454 132.22 92.4579 131.497 90.7108C130.773 88.9637 130.4 87.0912 130.4 85.2002L159.2 85.2002Z" fill="url(#paint10_linear_18303_25281)"></path><path d="M159.2 114C159.2 112.109 158.828 110.236 158.104 108.489C157.381 106.742 156.32 105.155 154.983 103.818C153.646 102.48 152.058 101.42 150.311 100.696C148.564 99.9725 146.691 99.6 144.8 99.6C142.909 99.6 141.037 99.9725 139.29 100.696C137.543 101.42 135.955 102.48 134.618 103.818C133.281 105.155 132.22 106.742 131.497 108.489C130.773 110.236 130.4 112.109 130.4 114L159.2 114Z" fill="url(#paint11_linear_18303_25281)"></path><path d="M189.6 99.5996C189.6 97.7086 189.227 95.8361 188.504 94.089C187.78 92.3419 186.719 90.7544 185.382 89.4173C184.045 88.0801 182.458 87.0194 180.71 86.2957C178.963 85.5721 177.091 85.1996 175.2 85.1996C173.309 85.1996 171.436 85.5721 169.689 86.2957C167.942 87.0194 166.355 88.0801 165.017 89.4173C163.68 90.7544 162.62 92.3419 161.896 94.089C161.172 95.8361 160.8 97.7086 160.8 99.5996L189.6 99.5996Z" fill="url(#paint12_linear_18303_25281)"></path><path d="M189.6 114C189.6 112.109 189.228 110.236 188.504 108.489C187.78 106.742 186.719 105.155 185.382 103.818C184.045 102.48 182.458 101.42 180.711 100.696C178.964 99.9725 177.091 99.6 175.2 99.6C173.309 99.6 171.436 99.9725 169.689 100.696C167.942 101.42 166.355 102.48 165.018 103.818C163.68 105.155 162.62 106.742 161.896 108.489C161.172 110.236 160.8 112.109 160.8 114L189.6 114Z" fill="url(#paint13_linear_18303_25281)"></path><path d="M191.2 85.2C193.091 85.2 194.964 85.5725 196.711 86.2961C198.458 87.0198 200.045 88.0805 201.382 89.4177C202.72 90.7548 203.78 92.3423 204.504 94.0894C205.228 95.8364 205.6 97.709 205.6 99.6C205.6 101.491 205.228 103.364 204.504 105.111C203.78 106.858 202.72 108.445 201.382 109.782C200.045 111.12 198.458 112.18 196.711 112.904C194.964 113.628 193.091 114 191.2 114L191.2 85.2Z" fill="url(#paint14_linear_18303_25281)"></path><path d="M220 85.2C218.109 85.2 216.236 85.5725 214.489 86.2961C212.742 87.0198 211.155 88.0805 209.818 89.4177C208.48 90.7548 207.42 92.3423 206.696 94.0894C205.972 95.8364 205.6 97.709 205.6 99.6C205.6 101.491 205.972 103.364 206.696 105.111C207.42 106.858 208.48 108.445 209.818 109.782C211.155 111.12 212.742 112.18 214.489 112.904C216.236 113.628 218.109 114 220 114L220 85.2Z" fill="url(#paint15_linear_18303_25281)"></path><path d="M114.4 120.4C112.509 120.4 110.637 120.773 108.89 121.496C107.143 122.22 105.555 123.281 104.218 124.618C102.881 125.955 101.82 127.542 101.097 129.29C100.373 131.037 100 132.909 100 134.8C100 136.691 100.373 138.564 101.097 140.311C101.82 142.058 102.881 143.645 104.218 144.983C105.555 146.32 107.143 147.38 108.89 148.104C110.637 148.828 112.509 149.2 114.4 149.2L114.4 120.4Z" fill="url(#paint16_linear_18303_25281)"></path><path d="M128.8 120.4C126.909 120.4 125.036 120.773 123.289 121.496C121.542 122.22 119.955 123.281 118.618 124.618C117.28 125.955 116.22 127.542 115.496 129.29C114.772 131.037 114.4 132.909 114.4 134.8C114.4 136.691 114.772 138.564 115.496 140.311C116.22 142.058 117.28 143.645 118.618 144.983C119.955 146.32 121.542 147.38 123.289 148.104C125.036 148.828 126.909 149.2 128.8 149.2L128.8 120.4Z" fill="url(#paint17_linear_18303_25281)"></path><path d="M159.2 120.4C159.2 122.291 158.828 124.164 158.104 125.911C157.381 127.658 156.32 129.246 154.983 130.583C153.646 131.92 152.058 132.981 150.311 133.704C148.564 134.428 146.691 134.8 144.8 134.8C142.909 134.8 141.037 134.428 139.29 133.704C137.543 132.981 135.955 131.92 134.618 130.583C133.281 129.246 132.22 127.658 131.497 125.911C130.773 124.164 130.4 122.291 130.4 120.4L159.2 120.4Z" fill="url(#paint18_linear_18303_25281)"></path><path d="M159.2 149.2C159.2 147.309 158.828 145.437 158.104 143.69C157.381 141.942 156.32 140.355 154.983 139.018C153.646 137.681 152.058 136.62 150.311 135.896C148.564 135.173 146.691 134.8 144.8 134.8C142.909 134.8 141.037 135.173 139.29 135.896C137.543 136.62 135.955 137.681 134.618 139.018C133.281 140.355 132.22 141.942 131.497 143.69C130.773 145.437 130.4 147.309 130.4 149.2L159.2 149.2Z" fill="url(#paint19_linear_18303_25281)"></path><path d="M160.8 120.4C162.691 120.4 164.564 120.773 166.311 121.496C168.058 122.22 169.645 123.281 170.982 124.618C172.319 125.955 173.38 127.542 174.104 129.29C174.828 131.037 175.2 132.909 175.2 134.8C175.2 136.691 174.828 138.564 174.104 140.311C173.38 142.058 172.319 143.645 170.982 144.983C169.645 146.32 168.058 147.38 166.311 148.104C164.564 148.828 162.691 149.2 160.8 149.2L160.8 120.4Z" fill="url(#paint20_linear_18303_25281)"></path><path d="M189.6 120.4C187.709 120.4 185.836 120.773 184.089 121.496C182.342 122.22 180.754 123.281 179.417 124.618C178.08 125.955 177.019 127.542 176.296 129.29C175.572 131.037 175.2 132.909 175.2 134.8C175.2 136.691 175.572 138.564 176.296 140.311C177.019 142.058 178.08 143.645 179.417 144.983C180.754 146.32 182.342 147.38 184.089 148.104C185.836 148.828 187.709 149.2 189.6 149.2L189.6 120.4Z" fill="url(#paint21_linear_18303_25281)"></path><path d="M220 134.8C220 132.909 219.628 131.037 218.904 129.29C218.18 127.543 217.12 125.955 215.782 124.618C214.445 123.281 212.858 122.22 211.111 121.496C209.364 120.773 207.491 120.4 205.6 120.4C203.709 120.4 201.836 120.773 200.089 121.496C198.342 122.22 196.755 123.281 195.418 124.618C194.081 125.955 193.02 127.543 192.296 129.29C191.572 131.037 191.2 132.909 191.2 134.8L220 134.8Z" fill="url(#paint22_linear_18303_25281)"></path><path d="M220 149.2C220 147.309 219.628 145.437 218.904 143.69C218.18 141.942 217.12 140.355 215.782 139.018C214.445 137.681 212.858 136.62 211.111 135.896C209.364 135.173 207.491 134.8 205.6 134.8C203.709 134.8 201.836 135.173 200.089 135.896C198.342 136.62 196.755 137.681 195.418 139.018C194.081 140.355 193.02 141.942 192.296 143.69C191.572 145.437 191.2 147.309 191.2 149.2L220 149.2Z" fill="url(#paint23_linear_18303_25281)"></path><defs><linearGradient id="paint0_linear_18303_25281" x1="114.4" y1="50" x2="114.4" y2="64.4" gradientUnits="userSpaceOnUse"><stop stop-color="white"></stop><stop offset="1" stop-color="white" stop-opacity="0"></stop></linearGradient><linearGradient id="paint1_linear_18303_25281" x1="114.4" y1="78.8003" x2="114.4" y2="64.4003" gradientUnits="userSpaceOnUse"><stop stop-color="white"></stop><stop offset="1" stop-color="white" stop-opacity="0"></stop></linearGradient><linearGradient id="paint2_linear_18303_25281" x1="130.4" y1="64.3998" x2="144.8" y2="64.3998" gradientUnits="userSpaceOnUse"><stop stop-color="white"></stop><stop offset="1" stop-color="white" stop-opacity="0"></stop></linearGradient><linearGradient id="paint3_linear_18303_25281" x1="159.2" y1="64.4003" x2="144.8" y2="64.4003" gradientUnits="userSpaceOnUse"><stop stop-color="white"></stop><stop offset="1" stop-color="white" stop-opacity="0"></stop></linearGradient><linearGradient id="paint4_linear_18303_25281" x1="175.2" y1="64.4003" x2="189.6" y2="64.4003" gradientUnits="userSpaceOnUse"><stop stop-color="white"></stop><stop offset="1" stop-color="white" stop-opacity="0"></stop></linearGradient><linearGradient id="paint5_linear_18303_25281" x1="160.8" y1="64.4003" x2="175.2" y2="64.4003" gradientUnits="userSpaceOnUse"><stop stop-color="white"></stop><stop offset="1" stop-color="white" stop-opacity="0"></stop></linearGradient><linearGradient id="paint6_linear_18303_25281" x1="205.6" y1="50" x2="205.6" y2="64.4" gradientUnits="userSpaceOnUse"><stop stop-color="white"></stop><stop offset="1" stop-color="white" stop-opacity="0"></stop></linearGradient><linearGradient id="paint7_linear_18303_25281" x1="205.6" y1="78.8003" x2="205.6" y2="64.4003" gradientUnits="userSpaceOnUse"><stop stop-color="white"></stop><stop offset="1" stop-color="white" stop-opacity="0"></stop></linearGradient><linearGradient id="paint8_linear_18303_25281" x1="100" y1="99.6" x2="114.4" y2="99.6" gradientUnits="userSpaceOnUse"><stop stop-color="white"></stop><stop offset="1" stop-color="white" stop-opacity="0"></stop></linearGradient><linearGradient id="paint9_linear_18303_25281" x1="128.8" y1="99.6" x2="114.4" y2="99.6" gradientUnits="userSpaceOnUse"><stop stop-color="white"></stop><stop offset="1" stop-color="white" stop-opacity="0"></stop></linearGradient><linearGradient id="paint10_linear_18303_25281" x1="144.8" y1="85.2002" x2="144.8" y2="99.6002" gradientUnits="userSpaceOnUse"><stop stop-color="white"></stop><stop offset="1" stop-color="white" stop-opacity="0"></stop></linearGradient><linearGradient id="paint11_linear_18303_25281" x1="144.8" y1="114" x2="144.8" y2="99.6" gradientUnits="userSpaceOnUse"><stop stop-color="white"></stop><stop offset="1" stop-color="white" stop-opacity="0"></stop></linearGradient><linearGradient id="paint12_linear_18303_25281" x1="175.2" y1="99.5996" x2="175.2" y2="85.1996" gradientUnits="userSpaceOnUse"><stop stop-color="white"></stop><stop offset="1" stop-color="white" stop-opacity="0"></stop></linearGradient><linearGradient id="paint13_linear_18303_25281" x1="175.2" y1="114" x2="175.2" y2="99.6" gradientUnits="userSpaceOnUse"><stop stop-color="white"></stop><stop offset="1" stop-color="white" stop-opacity="0"></stop></linearGradient><linearGradient id="paint14_linear_18303_25281" x1="191.2" y1="99.6" x2="205.6" y2="99.6" gradientUnits="userSpaceOnUse"><stop stop-color="white"></stop><stop offset="1" stop-color="white" stop-opacity="0"></stop></linearGradient><linearGradient id="paint15_linear_18303_25281" x1="220" y1="99.6" x2="205.6" y2="99.6" gradientUnits="userSpaceOnUse"><stop stop-color="white"></stop><stop offset="1" stop-color="white" stop-opacity="0"></stop></linearGradient><linearGradient id="paint16_linear_18303_25281" x1="114.4" y1="134.8" x2="100" y2="134.8" gradientUnits="userSpaceOnUse"><stop stop-color="white"></stop><stop offset="1" stop-color="white" stop-opacity="0"></stop></linearGradient><linearGradient id="paint17_linear_18303_25281" x1="128.8" y1="134.8" x2="114.4" y2="134.8" gradientUnits="userSpaceOnUse"><stop stop-color="white"></stop><stop offset="1" stop-color="white" stop-opacity="0"></stop></linearGradient><linearGradient id="paint18_linear_18303_25281" x1="144.8" y1="120.4" x2="144.8" y2="134.8" gradientUnits="userSpaceOnUse"><stop stop-color="white"></stop><stop offset="1" stop-color="white" stop-opacity="0"></stop></linearGradient><linearGradient id="paint19_linear_18303_25281" x1="144.8" y1="149.2" x2="144.8" y2="134.8" gradientUnits="userSpaceOnUse"><stop stop-color="white"></stop><stop offset="1" stop-color="white" stop-opacity="0"></stop></linearGradient><linearGradient id="paint20_linear_18303_25281" x1="160.8" y1="134.8" x2="175.2" y2="134.8" gradientUnits="userSpaceOnUse"><stop stop-color="white"></stop><stop offset="1" stop-color="white" stop-opacity="0"></stop></linearGradient><linearGradient id="paint21_linear_18303_25281" x1="189.6" y1="134.8" x2="175.2" y2="134.8" gradientUnits="userSpaceOnUse"><stop stop-color="white"></stop><stop offset="1" stop-color="white" stop-opacity="0"></stop></linearGradient><linearGradient id="paint22_linear_18303_25281" x1="205.6" y1="134.8" x2="205.6" y2="120.4" gradientUnits="userSpaceOnUse"><stop stop-color="white"></stop><stop offset="1" stop-color="white" stop-opacity="0"></stop></linearGradient><linearGradient id="paint23_linear_18303_25281" x1="205.6" y1="149.2" x2="205.6" y2="134.8" gradientUnits="userSpaceOnUse"><stop stop-color="white"></stop><stop offset="1" stop-color="white" stop-opacity="0"></stop></linearGradient></defs></svg> 