<?xml version="1.0" encoding="UTF-8"?> <svg xmlns="http://www.w3.org/2000/svg" width="28" height="32" viewBox="0 0 28 32" fill="none"><path d="M14 10.6667L9.33333 8V2.66667L14 0L18.6667 2.66667V8L14 10.6667Z" fill="#49FF86"></path><path d="M23.3333 16L18.6667 13.3333V8L23.3333 5.33333L28 8V13.3333L23.3333 16Z" fill="#49FF86"></path><path d="M18.6667 24V18.6667L23.3333 16L28 18.6667V24L23.3333 26.6667L18.6667 24Z" fill="#49FF86"></path><path d="M9.33333 24L14 21.3333L18.6667 24V29.3333L14 32L9.33333 29.3333V24Z" fill="#49FF86"></path><path d="M4.66667 16L9.33333 18.6667V24L4.66667 26.6667L0 24V18.6667L4.66667 16Z" fill="#49FF86"></path><path d="M4.66667 16L9.33333 13.3333V8L4.66667 5.33333L0 8V13.3333L4.66667 16Z" fill="#49FF86"></path></svg> 