<?xml version="1.0" encoding="UTF-8"?> <svg xmlns="http://www.w3.org/2000/svg" width="32" height="32" viewBox="0 0 32 32" fill="none"><path d="M21.3333 6.66667L18.6667 11.3333H13.3333L10.6667 6.66667L13.3333 2H18.6667L21.3333 6.66667Z" fill="#49FF86"></path><path fill-rule="evenodd" clip-rule="evenodd" d="M16 16L13.3333 11.3333H8L5.33333 16L8 20.6667H2.66667L0 25.3333L2.66667 30H8L10.6667 25.3333L13.3333 30H18.6667L21.3333 25.3333L24 30H29.3333L32 25.3333L29.3333 20.6667H24L26.6667 16L24 11.3333H18.6667L16 16ZM18.6667 20.6667L16 16L13.3333 20.6667H8L10.6667 25.3333L13.3333 20.6667H18.6667ZM18.6667 20.6667H24L21.3333 25.3333L18.6667 20.6667Z" fill="#49FF86"></path></svg> 