<?xml version="1.0" encoding="UTF-8"?> <svg xmlns="http://www.w3.org/2000/svg" width="64" height="64" viewBox="0 0 64 64" fill="none"><rect width="64" height="64" rx="32" fill="#49FF86"></rect><path d="M46 22.6667C46 25.244 43.9107 27.3333 41.3333 27.3333C38.756 27.3333 36.6667 25.244 36.6667 22.6667C36.6667 20.0893 38.756 18 41.3333 18C43.9107 18 46 20.0893 46 22.6667Z" fill="#07130C"></path><path d="M46 32C46 34.5773 43.9107 36.6667 41.3333 36.6667C38.756 36.6667 36.6667 34.5773 36.6667 32C36.6667 29.4227 38.756 27.3333 41.3333 27.3333C43.9107 27.3333 46 29.4227 46 32Z" fill="#07130C"></path><path d="M46 41.3333C46 43.9107 43.9107 46 41.3333 46C38.756 46 36.6667 43.9107 36.6667 41.3333C36.6667 38.756 38.756 36.6667 41.3333 36.6667C43.9107 36.6667 46 38.756 46 41.3333Z" fill="#07130C"></path><path d="M36.6667 22.6667C36.6667 25.244 34.5773 27.3333 32 27.3333C29.4227 27.3333 27.3333 25.244 27.3333 22.6667C27.3333 20.0893 29.4227 18 32 18C34.5773 18 36.6667 20.0893 36.6667 22.6667Z" fill="#07130C"></path><path d="M36.6667 32C36.6667 34.5773 34.5773 36.6667 32 36.6667C29.4227 36.6667 27.3333 34.5773 27.3333 32C27.3333 29.4227 29.4227 27.3333 32 27.3333C34.5773 27.3333 36.6667 29.4227 36.6667 32Z" fill="#07130C"></path><path d="M36.6667 41.3333C36.6667 43.9107 34.5773 46 32 46C29.4227 46 27.3333 43.9107 27.3333 41.3333C27.3333 38.756 29.4227 36.6667 32 36.6667C34.5773 36.6667 36.6667 38.756 36.6667 41.3333Z" fill="#07130C"></path><path d="M27.3333 22.6667C27.3333 25.244 25.244 27.3333 22.6667 27.3333C20.0893 27.3333 18 25.244 18 22.6667C18 20.0893 20.0893 18 22.6667 18C25.244 18 27.3333 20.0893 27.3333 22.6667Z" fill="#07130C"></path><path d="M27.3333 32C27.3333 34.5773 25.244 36.6667 22.6667 36.6667C20.0893 36.6667 18 34.5773 18 32C18 29.4227 20.0893 27.3333 22.6667 27.3333C25.244 27.3333 27.3333 29.4227 27.3333 32Z" fill="#07130C"></path><path d="M27.3333 41.3333C27.3333 43.9107 25.244 46 22.6667 46C20.0893 46 18 43.9107 18 41.3333C18 38.756 20.0893 36.6667 22.6667 36.6667C25.244 36.6667 27.3333 38.756 27.3333 41.3333Z" fill="#07130C"></path></svg> 