<?xml version="1.0" encoding="UTF-8"?> <svg xmlns="http://www.w3.org/2000/svg" width="64" height="64" viewBox="0 0 64 64" fill="none"><rect width="64" height="64" rx="32" fill="#07130C"></rect><path d="M29.3337 27.3333L26.667 22.6667L29.3337 18H34.667L37.3337 22.6667H32.0003L29.3337 27.3333Z" fill="#49FF86"></path><path d="M42.667 32L40.0003 27.3333H34.667L37.3337 22.6667H42.667L45.3337 27.3333L42.667 32Z" fill="#49FF86"></path><path d="M37.3337 41.3333H42.667L45.3337 36.6667L42.667 32H37.3337L40.0003 36.6667L37.3337 41.3333Z" fill="#49FF86"></path><path d="M26.667 41.3333H32.0003L34.667 36.6667L37.3337 41.3333L34.667 46H29.3337L26.667 41.3333Z" fill="#49FF86"></path><path d="M21.3337 32H26.667L24.0003 27.3333L26.667 22.6667H21.3337L18.667 27.3333L21.3337 32Z" fill="#49FF86"></path><path d="M21.3337 32L18.667 36.6667L21.3337 41.3333H26.667L29.3337 36.6667H24.0003L21.3337 32Z" fill="#49FF86"></path></svg> 