<?xml version="1.0" encoding="UTF-8"?> <svg xmlns="http://www.w3.org/2000/svg" viewBox="0 0 32.32 29.53" data-guides="{&quot;vertical&quot;:[],&quot;horizontal&quot;:[]}"><defs></defs><path fill="#000000" stroke="#000000" fill-opacity="1" stroke-width="1" stroke-opacity="1" color="rgb(51, 51, 51)" id="tSvg16a1d19ac98" title="Ellipse 2" d="M16.1601 2.2649C23.0636 2.2649 28.6601 7.8614 28.6601 14.7649C28.6601 21.6685 23.0636 27.2649 16.1601 27.2649C9.2565 27.2649 3.66 21.6685 3.66 14.7649C3.66 7.8614 9.2565 2.2649 16.1601 2.2649Z" style="transform-origin: -5966.67px -4969.73px;"></path><path fill="#ffffff" stroke="#ffffff" fill-opacity="1" stroke-width="1" stroke-opacity="1" color="rgb(51, 51, 51)" id="tSvg5463bdaf" title="Path 1" d="M7.8784 15.0044C10.0408 17.6045 12.354 20.0454 14.5163 22.6987C14.7174 22.964 15.17 22.8578 15.3209 22.5925C17.8854 18.1352 20.3998 13.6778 22.8638 9.1144C23.2159 8.4777 22.6125 8.0001 22.2101 8.6369C20.1847 11.9169 18.9419 13.9231 18.0173 15.429C16.7372 17.5138 16.0664 18.6401 14.7718 20.8603C14.5618 20.6701 14.3801 20.4307 14.186 20.222C13.6992 19.6987 13.2085 19.1952 12.7118 18.7037C11.2838 17.2905 9.8065 15.9769 8.2304 14.5799C8.0293 14.3677 7.6773 14.7391 7.8784 15.0044Z" style=""></path></svg> 