<?xml version="1.0" encoding="UTF-8"?> <svg xmlns="http://www.w3.org/2000/svg" width="142" height="45" viewBox="0 0 142 45" fill="none"><path d="M40.9271 45H31.8526L8.03928 12.2727V45H0V0.00390625H9.07461L32.888 32.761V0.00390625H40.9271V45Z" fill="white"></path><path d="M44.8374 45V0.00390625H73.7973V6.96305H52.8769L52.8634 18.8056V25.7353L52.8769 38.0405H74.1018V45H44.8374Z" fill="white"></path><path d="M77.8886 0L96.9944 18.8208H60.5829V25.7803H97.0662L77.5572 44.9979H87.8929L105.558 27.5962C108.508 24.6911 108.508 19.9807 105.558 17.0756L88.224 0H77.8886Z" fill="white"></path><path d="M131.333 0L113.999 17.0756C111.05 19.9807 111.05 24.6911 113.999 27.5962L131.664 44.9979H142L119.167 22.5056C119.072 22.4117 119.072 22.2601 119.167 22.1662L141.669 0H131.333Z" fill="white"></path></svg> 